<?xml version="1.0" encoding="iso-8859-1"?>
<!-- Generator: Adobe Illustrator 16.0.0, SVG Export Plug-In . SVG Version: 6.00 Build 0)  -->
<!DOCTYPE svg PUBLIC "-//W3C//DTD SVG 1.1//EN" "http://www.w3.org/Graphics/SVG/1.1/DTD/svg11.dtd">
<svg version="1.1" id="Capa_1" xmlns="http://www.w3.org/2000/svg" xmlns:xlink="http://www.w3.org/1999/xlink" x="0px" y="0px"
	 width="46.035px" height="46.035px" viewBox="0 0 46.035 46.035" style="enable-background:new 0 0 46.035 46.035;"
	 xml:space="preserve">
<g>
	<g>
		<path d="M36.65,31.863c-2.346,0-4.254,1.908-4.254,4.253s1.908,4.253,4.254,4.253s4.253-1.908,4.253-4.253
			S38.996,31.863,36.65,31.863z M36.65,38.37c-1.242,0-2.254-1.011-2.254-2.253s1.012-2.254,2.254-2.254s2.253,1.011,2.253,2.253
			S37.892,38.37,36.65,38.37z"/>
		<path d="M42.65,40.197c-1.609,0-2.92,1.31-2.92,2.919c0,1.608,1.311,2.919,2.92,2.919s2.919-1.311,2.919-2.919
			C45.569,41.507,44.259,40.197,42.65,40.197z M42.65,44.036c-0.507,0-0.92-0.413-0.92-0.919s0.413-0.919,0.92-0.919
			c0.508,0,0.919,0.413,0.919,0.919S43.158,44.036,42.65,44.036z"/>
		<path d="M44.578,1.173c-0.844-0.804-1.956-1.231-3.139-1.167L5.711,1.748C3.607,1.851,1.875,3.51,1.685,5.608L0.156,22.431
			c-0.102,1.131,0.262,2.275,0.997,3.138c0.735,0.864,1.807,1.405,2.94,1.484l37.258,2.601c0.099,0.007,0.196,0.01,0.294,0.01
			c1.08,0,2.11-0.406,2.9-1.142c0.858-0.801,1.351-1.934,1.351-3.108V4.25C45.896,3.093,45.417,1.971,44.578,1.173z M42.896,25.414
			c0,0.346-0.145,0.679-0.396,0.914c-0.232,0.217-0.535,0.336-0.854,0.336L4.302,24.062c-0.334-0.023-0.648-0.183-0.865-0.438
			c-0.216-0.254-0.323-0.591-0.293-0.923L4.673,5.88c0.056-0.617,0.566-1.105,1.185-1.136L41.646,3c0.322,0,0.629,0.123,0.862,0.345
			c0.246,0.235,0.388,0.565,0.388,0.905V25.414z"/>
		<path d="M6.584,12.456c0.554,0.052,1.048-0.35,1.108-0.904l0.407-3.689h2.066c0.553,0,1-0.448,1-1s-0.447-1-1-1H8.099
			c-1.044,0-1.916,0.93-2.029,1.966c0,0-0.212,1.972-0.381,3.53c-0.029,0.265,0.05,0.529,0.218,0.736
			C6.076,12.301,6.319,12.431,6.584,12.456z"/>
	</g>
</g>
<g>
</g>
<g>
</g>
<g>
</g>
<g>
</g>
<g>
</g>
<g>
</g>
<g>
</g>
<g>
</g>
<g>
</g>
<g>
</g>
<g>
</g>
<g>
</g>
<g>
</g>
<g>
</g>
<g>
</g>
</svg>
