<svg id="Capa_1" enable-background="new 0 0 512 512" height="512" viewBox="0 0 512 512" width="512" xmlns="http://www.w3.org/2000/svg"><g><circle cx="46.531" cy="444.51" r="46.531"/><path d="m500.15 179.459c-7.55-13.96-18.37-25.89-31.44-34.77 6.76-65.22-45.84-123.73-111.45-123.73-46.038 0-88.401 29.211-104.77 72.26-43.659-36.057-111.933-16.885-130.66 36.35-45.26 8.99-79.39 48.92-79.39 96.82 0 36.341 20.647 70.474 52.8 87.39 2.607 36.941 45.794 54.755 77.518 57.149 34.131 2.575 81.405-9.55 94.091-45.829h146.44c54.51 0 98.71-44.19 98.71-98.71.001-16.99-4.289-32.97-11.849-46.93z"/></g></svg>